HIERARCHY
ROOT hip
{
  OFFSET 0 0 0
  CHANNELS 6 Xposition Yposition Zposition Zrotation Yrotation Xrotation
  JOINT abdomen
  {
    OFFSET 0 20.6881 -0.73152
    CHANNELS 3 Zrotation Xrotation Yrotation
    JOINT chest
    {
      OFFSET 0 11.7043 -0.48768
      CHANNELS 3 Zrotation Xrotation Yrotation
      JOINT neck
      {
        OFFSET 0 22.1894 -2.19456
        CHANNELS 3 Zrotation Xrotation Yrotation
        JOINT head
        {
          OFFSET -0.24384 7.07133 1.2192
          CHANNELS 3 Zrotation Xrotation Yrotation
          JOINT leftEye
          {
            OFFSET 4.14528 8.04674 8.04672
            CHANNELS 3 Zrotation Xrotation Yrotation
            End Site
            {
              OFFSET 1 0 0
            }
          }
          JOINT rightEye
          {
            OFFSET -3.6576 8.04674 8.04672
            CHANNELS 3 Zrotation Xrotation Yrotation
            End Site
            {
              OFFSET 1 0 0
            }
          }
        }
      }
      JOINT rCollar
      {
        OFFSET -2.68224 19.2634 -4.8768
        CHANNELS 3 Zrotation Xrotation Yrotation
        JOINT rShldr
        {
          OFFSET -8.77824 -1.95073 1.46304
          CHANNELS 3 Zrotation Xrotation Yrotation
          JOINT rForeArm
          {
            OFFSET -28.1742 -1.7115 0.48768
            CHANNELS 3 Zrotation Xrotation Yrotation
            JOINT rHand
            {
              OFFSET -22.5879 0.773209 7.07136
              CHANNELS 3 Zrotation Xrotation Yrotation
              JOINT rThumb1
              {
                OFFSET -1.2192 -0.487915 3.41376
                CHANNELS 3 Zrotation Xrotation Yrotation
                JOINT rThumb2
                {
                  OFFSET -3.37035 -0.52449 3.41376
                  CHANNELS 3 Zrotation Xrotation Yrotation
                  End Site
                  {
                    OFFSET -1.78271 -1.18214 1.43049
                  }
                }
              }
              JOINT rIndex1
              {
                OFFSET -7.75947 0.938293 5.60832
                CHANNELS 3 Zrotation Xrotation Yrotation
                JOINT rIndex2
                {
                  OFFSET -2.54057 -0.884171 1.56538
                  CHANNELS 3 Zrotation Xrotation Yrotation
                  End Site
                  {
                    OFFSET -1.62519 -0.234802 1.16502
                  }
                }
              }
              JOINT rMid1
              {
                OFFSET -8.24714 1.18213 3.41376
                CHANNELS 3 Zrotation Xrotation Yrotation
                JOINT rMid2
                {
                  OFFSET -3.10165 -0.590103 1.0647
                  CHANNELS 3 Zrotation Xrotation Yrotation
                  End Site
                  {
                    OFFSET -2.48547 -0.328903 0.83742
                  }
                }
              }
              JOINT rRing1
              {
                OFFSET -8.82822 0.546677 1.51678
                CHANNELS 3 Zrotation Xrotation Yrotation
                JOINT rRing2
                {
                  OFFSET -2.60934 -0.819778 -0.0198488
                  CHANNELS 3 Zrotation Xrotation Yrotation
                  End Site
                  {
                    OFFSET -2.33842 -0.294052 0.168128
                  }
                }
              }
              JOINT rPinky1
              {
                OFFSET -8.27202 -0.0477905 -0.4584
                CHANNELS 3 Zrotation Xrotation Yrotation
                JOINT rPinky2
                {
                  OFFSET -1.82734 -0.647385 -0.700984
                  CHANNELS 3 Zrotation Xrotation Yrotation
                  End Site
                  {
                    OFFSET -1.69225 -0.51767 -0.607171
                  }
                }
              }
            }
          }
        }
      }
      JOINT lCollar
      {
        OFFSET 2.68224 19.2634 -4.8768
        CHANNELS 3 Zrotation Xrotation Yrotation
        JOINT lShldr
        {
          OFFSET 8.77824 -1.95073 1.46304
          CHANNELS 3 Zrotation Xrotation Yrotation
          JOINT lForeArm
          {
            OFFSET 28.1742 -1.7115 0.48768
            CHANNELS 3 Zrotation Xrotation Yrotation
            JOINT lHand
            {
              OFFSET 22.5879 0.773209 7.07136
              CHANNELS 3 Zrotation Xrotation Yrotation
              JOINT lThumb1
              {
                OFFSET 1.2192 -0.487915 3.41376
                CHANNELS 3 Zrotation Xrotation Yrotation
                JOINT lThumb2
                {
                  OFFSET 3.37035 -0.52449 3.41376
                  CHANNELS 3 Zrotation Xrotation Yrotation
                  End Site
                  {
                    OFFSET 1.78271 -1.18214 1.43049
                  }
                }
              }
              JOINT lIndex1
              {
                OFFSET 7.75947 0.938293 5.60832
                CHANNELS 3 Zrotation Xrotation Yrotation
                JOINT lIndex2
                {
                  OFFSET 2.54057 -0.884171 1.56538
                  CHANNELS 3 Zrotation Xrotation Yrotation
                  End Site
                  {
                    OFFSET 1.62519 -0.234802 1.16502
                  }
                }
              }
              JOINT lMid1
              {
                OFFSET 8.24714 1.18213 3.41376
                CHANNELS 3 Zrotation Xrotation Yrotation
                JOINT lMid2
                {
                  OFFSET 3.10165 -0.590103 1.0647
                  CHANNELS 3 Zrotation Xrotation Yrotation
                  End Site
                  {
                    OFFSET 2.48547 -0.328903 0.83742
                  }
                }
              }
              JOINT lRing1
              {
                OFFSET 8.82822 0.546677 1.51678
                CHANNELS 3 Zrotation Xrotation Yrotation
                JOINT lRing2
                {
                  OFFSET 2.60934 -0.819778 -0.0198488
                  CHANNELS 3 Zrotation Xrotation Yrotation
                  End Site
                  {
                    OFFSET 2.33842 -0.294052 0.168128
                  }
                }
              }
              JOINT lPinky1
              {
                OFFSET 8.27202 -0.0477905 -0.4584
                CHANNELS 3 Zrotation Xrotation Yrotation
                JOINT lPinky2
                {
                  OFFSET 1.82734 -0.647385 -0.700984
                  CHANNELS 3 Zrotation Xrotation Yrotation
                  End Site
                  {
                    OFFSET 1.69225 -0.51767 -0.607171
                  }
                }
              }
            }
          }
        }
      }
    }
  }
  JOINT rButtock
  {
    OFFSET -8.77824 4.35084 1.2192
    CHANNELS 3 Zrotation Xrotation Yrotation
    JOINT rThigh
    {
      OFFSET 0 -1.70687 -2.19456
      CHANNELS 3 Zrotation Xrotation Yrotation
      JOINT rShin
      {
        OFFSET 0 -36.8199 0.73152
        CHANNELS 3 Zrotation Xrotation Yrotation
        JOINT rFoot
        {
          OFFSET 0.73152 -45.1104 -5.12064
          CHANNELS 3 Zrotation Xrotation Yrotation
          End Site
          {
            OFFSET -1.1221 -3.69964 12.103
          }
        }
      }
    }
  }
  JOINT lButtock
  {
    OFFSET 8.77824 4.35084 1.2192
    CHANNELS 3 Zrotation Xrotation Yrotation
    JOINT lThigh
    {
      OFFSET 0 -1.70687 -2.19456
      CHANNELS 3 Zrotation Xrotation Yrotation
      JOINT lShin
      {
        OFFSET 0 -36.8199 0.73152
        CHANNELS 3 Zrotation Xrotation Yrotation
        JOINT lFoot
        {
          OFFSET -0.73152 -45.1104 -5.12064
          CHANNELS 3 Zrotation Xrotation Yrotation
          End Site
          {
            OFFSET 1.1221 -3.69964 12.103
          }
        }
      }
    }
  }
}
MOTION
Frames:	5
Frame Time:	0.00833333
2.70932 83.9958 -150.027 0.0 0.0 0.0 -1.70023 -0.0027635 -0.0463331 -0.469055 0.00196676 -0.081226 6.46843e-14 7.95139e-16 2.23633e-16 1.94296e-13 9.54166e-15 7.19041e-16 -0.0 0.0 0.0 -0.0 0.0 0.0 3.2502e-14 1.73937e-16 2.98177e-16 6.81543e-13 3.80176e-15 5.56597e-15 1.17172e-11 -3.38272e-12 -4.45278e-14 1.34091e-10 4.17443e-12 6.61555e-13 3.16299e-10 1.71513e-12 1.31993e-12 5.46216e-10 2.9611e-12 2.24786e-12 3.163e-10 1.71392e-12 1.30085e-12 7.73091 5.47488 0.417314 3.16299e-10 1.71501e-12 1.31039e-12 2.90554 0.965183 0.102902 3.163e-10 1.71492e-12 1.3088e-12 10.2786 0.731801 0.0259123 3.16293e-10 1.7175e-12 1.31675e-12 2.22167 -0.733487 -0.20892 3.23039e-14 1.74131e-16 0.0 6.78149e-13 3.59676e-15 3.37934e-15 1.17151e-11 3.6316e-12 -7.95139e-14 1.34089e-10 -2.84483e-12 6.96541e-13 3.16298e-10 1.70724e-12 1.29767e-12 5.46247e-10 2.94837e-12 2.24786e-12 3.16291e-10 1.70756e-12 1.30085e-12 -7.73091 5.47488 -0.417314 3.16298e-10 1.70667e-12 1.30085e-12 -2.90554 0.965183 -0.102902 3.16294e-10 1.70706e-12 1.30482e-12 -10.2786 0.731801 -0.0259123 3.16301e-10 1.70875e-12 1.29767e-12 -2.22167 -0.733487 0.20892 -2.03217e-16 0.0 -3.88251e-19 -0.815109 -1.92421 -0.00353496 -0.00895561 -2.0786 -0.0737839 -0.474678 3.99777 0.13478 2.03217e-16 0.0 3.88251e-19 -1.77344 -6.8476 0.169525 -0.00326757 6.83972 -0.086443 0.504561 0.00293661 -0.0573393
0.267804 83.5109 -150.875 -8.9182 -7.1388 1.232 1.15283 3.00744 2.24368 -1.29332 -0.712617 0.607798 -0.0690096 -1.33311 -0.944638 -0.389358 -0.638178 -1.84181 -0.0 0.0 0.0 -0.0 0.0 0.0 -4.04808e-14 -9.17959e-15 -3.65073e-14 21.0629 6.06135 2.57943 -4.75618 -2.27976 7.29547 2.94816e-05 -0.135616 -0.0190595 1.13197e-09 -1.41006e-09 2.84829e-10 1.9563e-09 -2.4374e-09 4.90952e-10 1.13197e-09 -1.41006e-09 2.84812e-10 7.73091 5.47488 0.417314 1.13197e-09 -1.41006e-09 2.84821e-10 2.90554 0.965183 0.102902 1.13197e-09 -1.41006e-09 2.84822e-10 10.2786 0.731801 0.0259123 1.13196e-09 -1.41005e-09 2.8483e-10 2.22167 -0.733487 -0.20892 -4.06237e-14 -9.17879e-15 -3.67954e-14 -21.3888 7.41512 1.50378 4.21089 -1.91149 -6.579 -0.000506765 -0.506265 0.0711413 1.14962e-09 5.08092e-10 1.07815e-11 1.98646e-09 8.79099e-10 1.83307e-11 1.14961e-09 5.08091e-10 1.07862e-11 -7.73091 5.47488 -0.417314 1.14962e-09 5.08091e-10 1.07836e-11 -2.90554 0.965183 -0.102902 1.14961e-09 5.08092e-10 1.07861e-11 -10.2786 0.731801 -0.0259123 1.14962e-09 5.08094e-10 1.07788e-11 -2.22167 -0.733487 0.20892 -2.03217e-16 0.0 -3.88251e-19 2.73198 0.445063 1.99114 -0.0406579 4.85678 -0.0276397 -0.556539 -0.933747 -1.0156 2.03217e-16 0.0 3.88251e-19 1.71446 -14.115 -0.691323 0.0355056 10.1336 0.0254401 0.655742 -0.929128 3.00107
0.40515 83.3433 -149.811 -8.7697 -7.077 1.0942 3.9141 6.19581 4.68961 -2.1586 -1.45017 1.33886 -0.178027 -2.81006 -1.94816 -0.848898 -1.28478 -3.79848 -0.0 0.0 0.0 -0.0 0.0 0.0 -1.24199e-13 -1.89086e-14 -7.45008e-14 42.7234 12.4146 5.45257 -9.15607 -4.56487 15.0413 -4.38739e-05 -0.286169 -0.0402185 2.05294e-09 -2.97908e-09 6.23231e-10 3.54837e-09 -5.1495e-09 1.07443e-09 2.05294e-09 -2.97908e-09 6.23216e-10 7.73091 5.47488 0.417314 2.05294e-09 -2.97908e-09 6.23223e-10 2.90554 0.965183 0.102902 2.05294e-09 -2.97908e-09 6.23228e-10 10.2786 0.731801 0.0259123 2.05293e-09 -2.97907e-09 6.23235e-10 2.22167 -0.733487 -0.20892 -1.24284e-13 -1.89071e-14 -7.47803e-14 -44.4065 15.2514 3.12229 8.19121 -3.85012 -13.5616 0.000339727 -1.05107 0.147718 2.10766e-09 1.06384e-09 4.65134e-11 3.64219e-09 1.84059e-09 7.97642e-11 2.10765e-09 1.06384e-09 4.65198e-11 -7.73091 5.47488 -0.417314 2.10766e-09 1.06384e-09 4.65144e-11 -2.90554 0.965183 -0.102902 2.10765e-09 1.06384e-09 4.65154e-11 -10.2786 0.731801 -0.0259123 2.10766e-09 1.06384e-09 4.65081e-11 -2.22167 -0.733487 0.20892 -2.03217e-16 0.0 -3.88251e-19 6.32332 2.92375 4.10306 -0.086654 12.1513 0.0205839 -0.866408 -6.18183 -2.27189 2.03217e-16 0.0 3.88251e-19 5.17353 -21.7903 -1.69423 0.0615463 13.5504 0.14714 0.934635 -1.94885 6.329
0.488176 83.2787 -148.731 -8.7498 -7.0388 0.7832 6.1314 8.97041 6.89923 -2.89028 -2.14062 1.98709 -0.339117 -3.99498 -2.84005 -1.29101 -1.90662 -5.52814 -0.0 0.0 0.0 -0.0 0.0 0.0 -1.86446e-13 -2.78866e-14 -1.10118e-13 61.4853 18.0328 8.0951 -12.5648 -6.39671 22.0131 -0.000182239 -0.406849 -0.0571798 2.76331e-09 -4.2336e-09 8.51848e-10 4.77646e-09 -7.31813e-09 1.46836e-09 2.76331e-09 -4.2336e-09 8.51835e-10 7.73091 5.47488 0.417314 2.76331e-09 -4.2336e-09 8.51841e-10 2.90554 0.965183 0.102902 2.76331e-09 -4.2336e-09 8.51849e-10 10.2786 0.731801 0.0259123 2.7633e-09 -4.2336e-09 8.51856e-10 2.22167 -0.733487 -0.20892 -1.86479e-13 -2.78846e-14 -1.10386e-13 -65.4121 22.1815 4.83198 11.3397 -5.43266 -19.8187 0.00225245 -1.51879 0.213491 2.81625e-09 1.52086e-09 2.9749e-11 4.86689e-09 2.6314e-09 5.04964e-11 2.81625e-09 1.52086e-09 2.9757e-11 -7.73091 5.47488 -0.417314 2.81626e-09 1.52086e-09 2.97492e-11 -2.90554 0.965183 -0.102902 2.81625e-09 1.52086e-09 2.97488e-11 -10.2786 0.731801 -0.0259123 2.81626e-09 1.52086e-09 2.97412e-11 -2.22167 -0.733487 0.20892 -2.03217e-16 0.0 -3.88251e-19 9.33072 5.15612 6.00468 -0.13842 18.7275 0.0684747 -1.32128 -10.779 -3.3749 2.03217e-16 0.0 3.88251e-19 7.9541 -28.6264 -2.67519 0.0729304 16.7211 0.257681 1.25552 -2.76172 9.12741
0.566271 83.1622 -147.631 -8.7255 -7.1289 0.4894 7.5151 10.7669 8.44325 -3.32263 -2.71435 2.42717 -0.525537 -4.45457 -3.44562 -1.60972 -2.47356 -6.68819 -0.0 0.0 0.0 -0.0 0.0 0.0 -1.95017e-13 -3.49873e-14 -1.39795e-13 74.2722 21.9691 9.81038 -14.6786 -7.51534 26.9298 -0.000251519 -0.452849 -0.0636452 2.94718e-09 -4.70187e-09 8.06007e-10 5.09455e-09 -8.12809e-09 1.38842e-09 2.94719e-09 -4.70188e-09 8.05994e-10 7.73091 5.47488 0.417314 2.94718e-09 -4.70187e-09 8.06e-10 2.90554 0.965183 0.102902 2.94718e-09 -4.70187e-09 8.0601e-10 10.2786 0.731801 0.0259123 2.94718e-09 -4.70187e-09 8.06016e-10 2.22167 -0.733487 -0.20892 -1.95011e-13 -3.49851e-14 -1.40044e-13 -80.5552 26.8955 6.49059 13.3141 -6.41402 -24.1839 0.00394785 -1.79377 0.252181 2.90123e-09 1.73106e-09 -1.18256e-10 5.01401e-09 2.99552e-09 -2.05524e-10 2.90123e-09 1.73105e-09 -1.18247e-10 -7.73091 5.47488 -0.417314 2.90123e-09 1.73105e-09 -1.18256e-10 -2.90554 0.965183 -0.102902 2.90122e-09 1.73105e-09 -1.18258e-10 -10.2786 0.731801 -0.0259123 2.90123e-09 1.73106e-09 -1.18266e-10 -2.22167 -0.733487 0.20892 -2.03217e-16 0.0 -3.88251e-19 11.2208 6.79985 7.35475 -0.181997 23.5084 0.111488 -1.68105 -13.7698 -4.02116 2.03217e-16 0.0 3.88251e-19 9.60694 -33.3878 -3.35786 0.0755114 19.2767 0.333579 1.43869 -3.09462 10.5906
